<?xml version="1.0" encoding="UTF-8"?>
<svg viewBox="0 0 365 630" xmlns="http://www.w3.org/2000/svg">
 <g transform="matrix(1.25,0,0,-1.25,0,630)">
  <g transform="scale(.24)">
   <path d="m1031.25,1849.25h-300c-54.5.32-52.508-79.95 0-80h300v-40h-300c-54.258-.07-52.262-80.35 0-80h300v-42h-300c-54.258-.49-52.262-80.75 0-81h300v-40h-300c-53.125.11-52.262-80.16 0-80h300v-40h-300c-53.125-.3-53.305-80.56 0-81h300v-40h-300c-53.125.3-53.305-79.96 0-80h300v-40h-300c-53.125-.11-53.305-80.36 0-80h300v-41l-300,1c-53.125-.49-52.262-80.766 0-81h300v-778c-.12-119.1836 181.25-117.1016 181,0v1822c.25,54.67-44.54,123.27-118,123h-363c-54.551.45-52.555-79.82 0-80h300v-40h-300c-54.473-.14-52.477-80.41 0-80h300v-42"/>
   <path d="m683.25 277.25c-9.898-66.062 12.453-184.25 59-227 49.418-45.043 107.42 12.043 83 58-23.766 46.398-54.332 71.504-28 181l-114-12"/>
   <path d="m456.25 2092.2c-12.984 0.04-27.359-5.36-30-29l-98-874v-529c-184.5 96-323.19-54-323-190-0.1875-121.9 89.352-221.75 217-222 127.95 0.254 215.37 112.08 215 222v532h41v-532c0.418-126.85 102.65-220.25 212-220 137.88-0.25 225.52 96.691 226 219-0.48 138.04-143.33 287-329 191v529l-100 874c-2.648 23.64-17.027 29.04-31 29"/>
   <path d="m220.25,360.25c-59.551-.215-108.23,48.453-108,109-.23,59.551 48.449,108.23 108,108 60.539.23 109.215-48.449 109-108 .215-60.547-48.461-109.215-109-109" fill="#fff"/>
   <path d="m700.25,360.25c59.789-.215 108.473,48.453 108,109 .473,59.551-48.211,108.23-108,108-60.301.23-108.98-48.449-109-108 .02-60.547 48.699-109.215 109-109" fill="#fff"/>
  </g>
 </g>
</svg>
